<?xml version="1.0" standalone="no"?><!DOCTYPE svg PUBLIC "-//W3C//DTD SVG 1.1//EN" "http://www.w3.org/Graphics/SVG/1.1/DTD/svg11.dtd"><svg class="icon" width="200px" height="200.00px" viewBox="0 0 1024 1024" version="1.1" xmlns="http://www.w3.org/2000/svg"><path d="M514 912c-219.9 0-398.9-178.9-398.9-398.8S294 114.3 514 114.3c219.9 0 398.8 178.9 398.8 398.9C912.8 733.1 733.9 912 514 912z m0-701.5c-166.9 0-302.7 135.8-302.7 302.7S347.1 815.9 514 815.9s302.7-135.8 302.7-302.7S680.9 210.5 514 210.5z" fill="#BDD2EF" /><path d="M437.1 345.9L687 490.2c17.7 10.2 17.7 35.7 0 45.9L437.1 680.5c-17.7 10.2-39.8-2.6-39.8-23V368.9c0-20.4 22.1-33.2 39.8-23z" fill="#2867CE" /></svg>