<?xml version="1.0" standalone="no"?><!DOCTYPE svg PUBLIC "-//W3C//DTD SVG 1.1//EN" "http://www.w3.org/Graphics/SVG/1.1/DTD/svg11.dtd"><svg t="1618536332568" class="icon" viewBox="0 0 1024 1024" version="1.1" xmlns="http://www.w3.org/2000/svg" p-id="5368" xmlns:xlink="http://www.w3.org/1999/xlink" width="200" height="200"><defs><style type="text/css"></style></defs><path d="M589.916554 191.946831V526.375385c-29.195815-18.579692-63.696738-29.197785-106.167139-29.197785-90.243938 0-159.249723 53.084554-159.249723 122.094277 0 69.007754 69.005785 122.090338 159.249723 122.090338s159.249723-53.082585 159.249723-122.090338V191.946831h-53.082584z m-106.167139 493.678277c-58.391631 0-106.167138-31.852308-106.167138-69.005785 0-37.159385 47.775508-69.011692 106.167138-69.011692 58.3936 0 106.167138 31.852308 106.167139 69.011692 0 37.153477-47.771569 69.005785-106.167139 69.005785z m0 0" fill="#d81e06" p-id="5369"></path><path d="M831.454523 247.683938l-37.161354 37.153477c69.013662 74.320738 114.132677 169.869785 114.132677 278.695385 0 220.299815-177.835323 398.133169-398.133169 398.133169-220.299815 0-398.1312-177.833354-398.1312-398.133169 0-209.683692 164.558769-382.208 371.589908-395.482585V114.9696C247.524431 128.244185 59.076923 324.655262 59.076923 563.534769c0 249.495631 201.722092 451.215754 451.215754 451.215754S961.508431 813.0304 961.508431 563.534769c0-122.096246-50.430031-233.570462-130.053908-315.850831z m0 0M871.262523 210.522585l37.161354-37.161354c-84.934892-84.934892-193.758523-143.326523-318.507323-161.904246v53.084553c108.829538 18.575754 207.031138 71.664246 281.345969 145.981047z m0 0" fill="#d81e06" p-id="5370"></path></svg>